<svg xmlns="http://www.w3.org/2000/svg" width="187.431" height="28.579" viewBox="0 0 187.431 28.579"><path d="M157.721,28.578h-.04a4.976,4.976,0,0,1-4.46-2.74,6.32,6.32,0,0,1-.68-3,6.212,6.212,0,0,1,.69-2.96,4.993,4.993,0,0,1,1.869-2,5.2,5.2,0,0,1,2.605-.7h.045l.111,0a4.915,4.915,0,0,1,2.389.622,4.226,4.226,0,0,1,1.58,1.561v-2h1.831v11h-1.84v-2a4.32,4.32,0,0,1-1.61,1.59,4.819,4.819,0,0,1-2.38.631Zm-1.471-9.31a3.47,3.47,0,0,0-1.34,1.4,4.541,4.541,0,0,0-.5,2.16,4.619,4.619,0,0,0,.5,2.191,3.463,3.463,0,0,0,1.34,1.419,3.6,3.6,0,0,0,1.811.491h.09a3.667,3.667,0,0,0,1.83-.491,3.431,3.431,0,0,0,1.35-1.419,4.914,4.914,0,0,0,0-4.331,3.526,3.526,0,0,0-1.35-1.409,3.756,3.756,0,0,0-1.855-.49h-.056A3.685,3.685,0,0,0,156.25,19.268Zm27.18,9.3a5.629,5.629,0,0,1-2.26-.471,3.7,3.7,0,0,1-1.58-1.2,3.156,3.156,0,0,1-.64-1.77h1.88a1.82,1.82,0,0,0,.77,1.34,2.9,2.9,0,0,0,1.81.52,2.624,2.624,0,0,0,1.64-.46,1.39,1.39,0,0,0,.6-1.16,1.14,1.14,0,0,0-.64-1.07,9.482,9.482,0,0,0-2-.69,14.09,14.09,0,0,1-2-.65,3.509,3.509,0,0,1-1.319-1,2.529,2.529,0,0,1-.551-1.71,2.621,2.621,0,0,1,.5-1.54,3.5,3.5,0,0,1,1.45-1.05,5.128,5.128,0,0,1,2.1-.41,4.515,4.515,0,0,1,2.94.92,3.308,3.308,0,0,1,1.2,2.52h-1.82a1.888,1.888,0,0,0-.689-1.38,3.05,3.05,0,0,0-3.251-.1,1.288,1.288,0,0,0-.58,1.1,1.21,1.21,0,0,0,.35.89,2.457,2.457,0,0,0,.88.56,13.746,13.746,0,0,0,1.47.47,17.922,17.922,0,0,1,1.92.63,3.421,3.421,0,0,1,1.27.93,2.509,2.509,0,0,1,.551,1.62,2.8,2.8,0,0,1-.5,1.62,3.266,3.266,0,0,1-1.41,1.13,4.946,4.946,0,0,1-1.978.412Zm-57.589-.041h-.1a5.581,5.581,0,0,1-2.7-.7,4.925,4.925,0,0,1-2-2,6.142,6.142,0,0,1-.71-3,5.888,5.888,0,0,1,.73-3,5.035,5.035,0,0,1,2-2,6.111,6.111,0,0,1,5.639,0,5.086,5.086,0,0,1,2,2,5.915,5.915,0,0,1,.73,3,5.817,5.817,0,0,1-.751,3,5.177,5.177,0,0,1-2,2,5.805,5.805,0,0,1-2.756.7Zm-1.8-9.29a3.3,3.3,0,0,0-1.31,1.42,5.344,5.344,0,0,0,0,4.5,3.207,3.207,0,0,0,1.31,1.37,3.707,3.707,0,0,0,1.768.45h.032a3.823,3.823,0,0,0,1.82-.51,3.4,3.4,0,0,0,1.39-1.38,5.023,5.023,0,0,0,0-4.48,3.439,3.439,0,0,0-1.36-1.37,3.813,3.813,0,0,0-1.793-.45h-.075A3.763,3.763,0,0,0,124.041,19.238Zm9.809,9.15v-11h1.81v1.78a3.577,3.577,0,0,1,1.381-1.46,4.293,4.293,0,0,1,2.17-.52v1.88h-.481q-3.059,0-3.06,3.32v6Zm40.92-.04v-6.2a3.511,3.511,0,0,0-.82-2.51,2.928,2.928,0,0,0-2.24-.869,3,3,0,0,0-2.29.9,3.673,3.673,0,0,0-.85,2.62v6.06h-1.82v-11h1.82v1.56a3.641,3.641,0,0,1,1.47-1.3,4.635,4.635,0,0,1,2.05-.46,4.476,4.476,0,0,1,3.24,1.25,4.649,4.649,0,0,1,1.24,3.489v6.46Zm-27.78,0v-9.46h-1.42v-1.5h1.42v-.73a3.459,3.459,0,0,1,.95-2.69,4.54,4.54,0,0,1,3.05-.85v1.52a2.438,2.438,0,0,0-1.69.47,2.069,2.069,0,0,0-.491,1.55v.78h2.3v1.45h-2.3v9.46Zm-32.15,0v-9.46h-1.42v-1.5h1.42v-.73a3.459,3.459,0,0,1,.95-2.69,4.539,4.539,0,0,1,3.049-.85v1.52a2.435,2.435,0,0,0-1.689.47,2.069,2.069,0,0,0-.49,1.55v.78h2.3l-.031,1.45h-2.27v9.46Zm-23.42,0V13.728s-.07-.661-.38,0l-5,14.559v.06H79.4v-.06l-5-14.559c-.32-.661-.391,0-.391,0v14.62H66.13V.007H73.66a2.688,2.688,0,0,1,2.58,1.52l6,15.521s.19.48.43.45.429-.45.429-.45l6-15.521A2.791,2.791,0,0,1,91.74.007h7.57v28.34Zm-45.77,0v-9L35.67.007h9.01L49.67,10.938l3.9,8.41-2.5-11.49L54.65.007h8.89l-9.97,19.34v9Zm-20.4,0V13.728s-.08-.661-.391,0l-5,14.559v.06H13.27v-.06l-5-14.559c-.311-.661-.39,0-.39,0v14.62H0V.007H7.47a2.791,2.791,0,0,1,2.64,1.52l6,15.521s.19.48.43.45.43-.45.43-.45l6-15.521A2.791,2.791,0,0,1,25.66.007h7.47v28.34Z" transform="translate(0 0)" fill="#000"/></svg>